#!OML:ASF C:\Vicon Data\Big\jianyuan-11\jianyuan\Session 1\male.ASF
:FULLY-SPECIFIED
:DEGREES
167
root -12.933596 16.204986 -11.148701 -13.787738 -39.376206 15.405491
lowerback -0.635027 4.969525 -5.408584 
upperback 5.115581 7.109913 -1.859877 
thorax 5.268778 3.412265 1.419179 
lowerneck -12.221281 -8.537473 -11.501620 
upperneck 23.783759 -11.629322 11.051236 
head 11.056256 -4.918152 4.356201 
rclavicle 0.000000 0.000000 
rhumerus -40.644112 -27.210828 -77.276503 
rradius 38.836704 
rwrist -3.829102 
rhand -19.211780 -1.229152 
rfingers 0.000000 
rthumb 7.100695 -31.090051 
lclavicle 0.000000 0.000000 
lhumerus -64.817928 57.849600 33.698696 
lradius 18.415374 
lwrist -63.319170 
lhand -15.083811 -9.650007 
lfingers 0.000000 
lthumb 11.083925 20.037309 
rfemur -4.567121 -5.825249 15.671647 
rtibia 70.849566 
rfoot 19.100036 -4.993834 
rtoes -15.363211 
lfemur -16.780201 -5.753385 -29.673879 
ltibia 31.543162 
lfoot -9.952831 1.394258 
ltoes 8.630172 
168
root -12.979211 16.213711 -11.085062 -14.105608 -39.337266 15.725058
lowerback -0.338352 4.873833 -5.558400 
upperback 5.062889 6.973070 -2.001214 
thorax 5.054055 3.351628 1.318531 
lowerneck -12.064213 -8.447636 -11.624443 
upperneck 23.775224 -11.554205 11.336942 
head 11.040037 -4.866215 4.501099 
rclavicle 0.000000 0.000000 
rhumerus -41.010850 -27.382166 -77.119175 
rradius 38.708034 
rwrist -3.612308 
rhand -19.166693 -1.253146 
rfingers 0.000000 
rthumb 7.144217 -31.112580 
lclavicle 0.000000 0.000000 
lhumerus -61.194813 56.766117 37.963548 
lradius 18.708705 
lwrist -61.071058 
lhand -15.049399 -9.113325 
lfingers 0.000000 
lthumb 11.117065 20.572182 
rfemur -5.560845 -6.067584 15.278915 
rtibia 72.044877 
rfoot 18.294228 -6.020025 
rtoes -13.127173 
lfemur -16.272178 -5.564552 -30.017592 
ltibia 31.425433 
lfoot -10.054262 1.209248 
ltoes 7.989757 
169
root -13.027581 16.225743 -11.018259 -14.266808 -39.488174 15.860016
lowerback -0.231557 4.806368 -5.591864 
upperback 5.087550 6.877259 -1.985905 
thorax 5.019366 3.303624 1.340359 
lowerneck -12.079211 -8.383086 -11.823687 
upperneck 23.807186 -11.439824 11.414129 
head 11.058124 -4.823983 4.581858 
rclavicle 0.000000 0.000000 
rhumerus -41.179376 -27.546710 -76.824888 
rradius 38.458822 
rwrist -3.080414 
rhand -18.934672 -1.147591 
rfingers 0.000000 
rthumb 7.368174 -30.999265 
lclavicle 0.000000 0.000000 
lhumerus -59.141550 56.526514 40.453335 
lradius 18.849382 
lwrist -59.480682 
lhand -14.978658 -9.369523 
lfingers 0.000000 
lthumb 11.185316 20.312370 
rfemur -6.631521 -6.354408 15.015509 
rtibia 73.168715 
rfoot 17.585070 -6.472730 
rtoes -12.457603 
lfemur -15.808514 -5.427373 -30.157861 
ltibia 31.326245 
lfoot -10.257607 1.115042 
ltoes 6.821605 
170
root -13.077442 16.235297 -10.953839 -14.419505 -39.608423 15.942859
lowerback -0.163407 4.748763 -5.659106 
upperback 5.138273 6.800135 -1.953477 
thorax 5.027733 3.261552 1.403910 
lowerneck -11.989982 -8.320754 -11.764439 
upperneck 23.713478 -11.341115 11.307553 
head 10.980125 -4.792712 4.547705 
rclavicle 0.000000 0.000000 
rhumerus -41.368480 -27.661731 -76.578405 
rradius 38.337084 
rwrist -2.889445 
rhand -18.871795 -1.168013 
rfingers 0.000000 
rthumb 7.428910 -31.017531 
lclavicle 0.000000 0.000000 
lhumerus -56.404439 55.786809 43.757314 
lradius 19.088592 
lwrist -57.207859 
lhand -14.807533 -8.918463 
lfingers 0.000000 
lthumb 11.350346 20.754369 
rfemur -7.609606 -6.489701 14.901486 
rtibia 74.171375 
rfoot 16.775009 -7.387818 
rtoes -10.207077 
lfemur -15.307775 -5.292226 -30.252644 
ltibia 31.183117 
lfoot -10.541535 0.982556 
ltoes 7.421363 
171
root -13.120089 16.242980 -10.887789 -14.660175 -39.792071 16.162439
lowerback -0.069981 4.697789 -5.705792 
upperback 5.197120 6.735386 -1.984899 
thorax 5.040074 3.229096 1.389602 
lowerneck -12.129451 -8.252526 -11.561596 
upperneck 23.763467 -11.220562 11.055869 
head 10.978751 -4.744326 4.435755 
rclavicle 0.000000 0.000000 
rhumerus -41.527547 -27.838625 -76.355582 
rradius 38.165134 
rwrist -2.404094 
rhand -18.772036 -1.130406 
rfingers 0.000000 
rthumb 7.525164 -30.976535 
lclavicle 0.000000 0.000000 
lhumerus -54.532267 55.420338 45.998045 
lradius 19.252490 
lwrist -56.502244 
lhand -15.223265 -8.873424 
lfingers 0.000000 
lthumb 10.949380 20.821013 
rfemur -8.674565 -6.630127 14.598804 
rtibia 75.146861 
rfoot 16.061624 -8.059391 
rtoes -8.538519 
lfemur -14.834765 -5.168812 -30.467892 
ltibia 31.049127 
lfoot -10.833216 0.958050 
ltoes 6.834768 
172
root -13.170205 16.256786 -10.819169 -14.878600 -39.966779 16.214220
lowerback 0.137003 4.632002 -5.594269 
upperback 5.231037 6.634391 -2.011436 
thorax 4.978980 3.187850 1.281938 
lowerneck -12.106306 -8.145202 -11.669049 
upperneck 23.728496 -11.086915 11.222997 
head 10.960921 -4.676982 4.537362 
rclavicle 0.000000 0.000000 
rhumerus -41.780387 -28.057757 -76.170710 
rradius 38.008372 
rwrist -2.082206 
rhand -18.697115 -0.941260 
rfingers 0.000000 
rthumb 7.597493 -30.784821 
lclavicle 0.000000 0.000000 
lhumerus -52.652313 54.845005 48.218987 
lradius 19.504295 
lwrist -55.483423 
lhand -15.207110 -9.129148 
lfingers 0.000000 
lthumb 10.964981 20.564516 
rfemur -9.539870 -6.678046 14.533224 
rtibia 75.967139 
rfoot 15.307748 -8.580878 
rtoes -7.746209 
lfemur -14.225461 -5.042822 -30.537416 
ltibia 30.912250 
lfoot -11.113192 0.869665 
ltoes 6.071284 
173
root -13.215224 16.264832 -10.759621 -15.002765 -40.014841 16.182283
lowerback 0.384329 4.537388 -5.523357 
upperback 5.260940 6.489162 -1.987003 
thorax 4.882478 3.122071 1.243840 
lowerneck -12.127834 -8.082980 -11.654660 
upperneck 23.793798 -10.979988 11.128876 
head 10.967538 -4.636148 4.517742 
rclavicle 0.000000 0.000000 
rhumerus -41.943794 -28.220018 -75.931574 
rradius 37.876968 
rwrist -1.743663 
rhand -18.505765 -1.119596 
rfingers 0.000000 
rthumb 7.782188 -30.956401 
lclavicle 0.000000 0.000000 
lhumerus -50.041965 53.684232 51.464012 
lradius 19.883747 
lwrist -53.662852 
lhand -15.153227 -8.844455 
lfingers 0.000000 
lthumb 11.016967 20.846413 
rfemur -10.465666 -6.799269 14.509283 
rtibia 76.739358 
rfoot 14.525041 -9.244500 
rtoes -6.245905 
lfemur -13.699491 -5.019654 -30.563056 
ltibia 30.767297 
lfoot -11.289504 0.773101 
ltoes 5.864134 
174
root -13.260304 16.270986 -10.699745 -15.175602 -40.108405 16.237365
lowerback 0.502833 4.467416 -5.596932 
upperback 5.343012 6.391502 -1.906468 
thorax 4.890952 3.068221 1.357510 
lowerneck -12.142532 -7.999823 -11.691511 
upperneck 23.763202 -10.845758 11.102755 
head 10.941127 -4.583425 4.533860 
rclavicle 0.000000 0.000000 
rhumerus -42.042701 -28.346750 -75.653136 
rradius 37.756494 
rwrist -1.698227 
rhand -18.424745 -1.146570 
rfingers 0.000000 
rthumb 7.860391 -30.980484 
lclavicle 0.000000 0.000000 
lhumerus -47.822665 52.846501 54.260383 
lradius 20.183280 
lwrist -51.900676 
lhand -15.393524 -9.109905 
lfingers 0.000000 
lthumb 10.785130 20.593205 
rfemur -11.412187 -6.845068 14.421703 
rtibia 77.450601 
rfoot 13.735368 -9.862779 
rtoes -3.181717 
lfemur -13.173249 -4.938013 -30.643191 
ltibia 30.609244 
lfoot -11.476234 0.684846 
ltoes 5.378676 
175
root -13.303128 16.278697 -10.637109 -15.267906 -40.196616 16.277805
lowerback 0.634620 4.344455 -5.524213 
upperback 5.370765 6.218991 -1.914936 
thorax 4.863336 2.987292 1.295592 
lowerneck -12.318590 -7.913488 -11.605927 
upperneck 23.925161 -10.695595 10.936098 
head 10.999522 -4.518212 4.480200 
rclavicle 0.000000 0.000000 
rhumerus -42.207545 -28.415043 -75.472320 
rradius 37.506047 
rwrist -0.819654 
rhand -18.523308 -0.931934 
rfingers 0.000000 
rthumb 7.765258 -30.769339 
lclavicle 0.000000 0.000000 
lhumerus -46.013993 52.074885 56.421724 
lradius 20.446769 
lwrist -50.425123 
lhand -15.403814 -9.490475 
lfingers 0.000000 
lthumb 10.775209 20.213189 
rfemur -12.406493 -6.942816 14.314690 
rtibia 78.084549 
rfoot 13.194132 -10.045967 
rtoes -1.152751 
lfemur -12.732509 -4.864234 -30.726060 
ltibia 30.465911 
lfoot -11.639674 0.599946 
ltoes 4.873637 
176
root -13.350408 16.284916 -10.574520 -15.530363 -40.334395 16.317858
lowerback 0.908678 4.269950 -5.427618 
upperback 5.426706 6.106107 -1.942481 
thorax 4.785680 2.940569 1.191811 
lowerneck -12.294938 -7.831105 -11.531464 
upperneck 23.902016 -10.597674 10.939707 
head 10.968035 -4.468272 4.484624 
rclavicle 0.000000 0.000000 
rhumerus -42.416066 -28.580424 -75.288905 
rradius 37.439697 
rwrist -0.811956 
rhand -18.229608 -0.915842 
rfingers 0.000000 
rthumb 8.048723 -30.742542 
lclavicle 0.000000 0.000000 
lhumerus -43.871471 50.690653 59.046451 
lradius 20.800689 
lwrist -48.402672 
lhand -15.907052 -9.088893 
lfingers 0.000000 
lthumb 10.289797 20.639297 
rfemur -13.151388 -6.875163 14.273600 
rtibia 78.600722 
rfoot 12.560487 -10.212775 
rtoes -0.479054 
lfemur -12.097709 -4.747646 -30.794868 
ltibia 30.319067 
lfoot -11.857992 0.536750 
ltoes 4.193707 
177
root -13.399426 16.292200 -10.515699 -15.692762 -40.429023 16.233423
lowerback 1.104950 4.181739 -5.392750 
upperback 5.530094 5.977568 -1.845066 
thorax 4.783315 2.876357 1.258873 
lowerneck -12.356421 -7.778355 -11.469095 
upperneck 23.955987 -10.483551 10.730951 
head 10.967935 -4.432996 4.413387 
rclavicle 0.000000 0.000000 
rhumerus -42.525164 -28.713019 -75.016027 
rradius 37.372471 
rwrist -0.833900 
rhand -18.079113 -0.955263 
rfingers 0.000000 
rthumb 8.194003 -30.776351 
lclavicle 0.000000 0.000000 
lhumerus -41.960368 49.373644 61.554209 
lradius 21.225434 
lwrist -46.405346 
lhand -16.119519 -8.778685 
lfingers 0.000000 
lthumb 10.084820 20.959619 
rfemur -13.903896 -6.870184 14.353168 
rtibia 79.036192 
rfoot 12.032591 -10.204587 
rtoes -0.592374 
lfemur -11.481308 -4.696027 -30.759618 
ltibia 30.151473 
lfoot -12.033658 0.470847 
ltoes 3.605012 
